<svg width="57" height="57" viewBox="0 0 57 57" fill="none" xmlns="http://www.w3.org/2000/svg">
<path d="M28.5 0.279999C12.896 0.279999 0.280029 12.896 0.280029 28.5C0.280029 44.104 12.896 56.72 28.5 56.72C44.104 56.72 56.72 44.104 56.72 28.5C56.72 12.896 44.104 0.279999 28.5 0.279999ZM28.5 53.4C14.722 53.4 3.60003 42.278 3.60003 28.5C3.60003 14.722 14.722 3.6 28.5 3.6C42.278 3.6 53.4 14.722 53.4 28.5C53.4 42.278 42.278 53.4 28.5 53.4Z" fill="#292929"/>
<path d="M28.998 12.398L12.896 28.5L28.998 44.602L31.322 42.278L17.544 28.5L31.322 14.722L28.998 12.398Z" fill="#292929"/>
<path d="M15.22 30.16H43.44V26.84H15.22V30.16Z" fill="#292929"/>
</svg>
