<svg width="41" height="41" viewBox="0 0 41 41" fill="none" xmlns="http://www.w3.org/2000/svg">
<path d="M10.0313 10.0312C4.48465 15.5778 4.48465 24.5469 10.0313 30.0936C15.578 35.6402 24.547 35.6402 30.0937 30.0936C35.6403 24.5469 35.6403 15.5778 30.0937 10.0312C24.547 4.48453 15.578 4.48453 10.0313 10.0312ZM28.9135 28.9134C24.016 33.811 16.109 33.811 11.2115 28.9134C6.31387 24.0158 6.31387 16.1089 11.2115 11.2113C16.109 6.31375 24.016 6.31375 28.9135 11.2113C33.8111 16.1089 33.8111 24.0158 28.9135 28.9134Z" fill="#292929"/>
<path d="M14.1617 14.5157L14.1617 16.1679L23.9569 16.1679L23.9569 25.9631L25.6091 25.9631L25.6091 14.5157L14.1617 14.5157Z" fill="#292929"/>
<path d="M15.342 25.9631L25.3732 15.9319L24.1931 14.7517L14.1619 24.7829L15.342 25.9631Z" fill="#292929"/>
</svg>
